<svg version="1.1" id="Layer_1" xmlns="http://www.w3.org/2000/svg" xmlns:xlink="http://www.w3.org/1999/xlink" x="0px" y="0px"
	 width="100%" viewBox="0 0 311 141" enable-background="new 0 0 311 141" xml:space="preserve">
<path fill="#000000" opacity="1.000000" stroke="none" 
	d="
M236.000000,142.000000 
	C157.333344,142.000000 79.166687,142.000000 1.000021,142.000000 
	C1.000014,95.000015 1.000014,48.000031 1.000007,1.000034 
	C104.666634,1.000022 208.333267,1.000022 311.999939,1.000011 
	C311.999939,47.999969 311.999939,94.999939 311.999969,141.999954 
	C286.833344,142.000000 261.666656,142.000000 236.000000,142.000000 
M191.044495,48.105827 
	C191.044495,48.105827 191.112869,48.128300 191.672134,47.904484 
	C192.091187,47.269356 192.510254,46.634224 193.254776,45.384800 
	C195.182419,42.290012 197.110062,39.195225 199.609421,35.905075 
	C200.047455,35.267235 200.485474,34.629395 201.260696,33.381039 
	C200.842117,32.622768 200.423523,31.864498 199.492142,31.043604 
	C199.322937,31.075655 199.153748,31.107706 198.251358,31.076059 
	C197.519272,31.135612 196.787170,31.195164 195.313126,31.117392 
	C194.565750,31.171761 193.818390,31.226130 192.348679,30.932039 
	C188.896454,30.545332 184.331390,28.590666 182.218140,30.090530 
	C177.468933,33.461231 174.017654,38.624359 169.887695,42.913082 
	C164.707336,48.292595 159.376511,53.527214 154.034164,57.915119 
	C153.700226,50.927551 153.366287,43.939983 152.972000,36.092018 
	C152.208191,33.810188 151.873383,29.856081 150.607529,29.531351 
	C144.614487,27.993958 138.355301,26.816349 131.990097,29.529982 
	C131.990097,42.704826 131.990097,55.819733 131.257980,69.199936 
	C131.494827,70.810089 131.731674,72.420235 132.018555,74.695274 
	C132.080246,75.134552 132.141937,75.573822 132.058502,76.774269 
	C131.445892,78.210793 131.226654,80.130913 130.154755,81.002823 
	C124.561966,85.552139 118.752487,89.835060 112.552368,94.060669 
	C112.552368,94.060669 112.075699,93.949074 112.041275,93.130707 
	C112.064835,91.764923 112.088402,90.399139 112.680847,88.465630 
	C112.886635,86.488327 113.038322,84.503624 113.307304,82.534958 
	C114.689827,72.415901 112.407349,65.101944 103.662697,61.114731 
	C97.596603,58.348827 91.525093,58.809166 85.427849,58.804363 
	C77.160255,58.797852 68.871384,59.726341 61.049831,55.087372 
	C61.149864,50.140186 60.222023,44.795856 67.003044,42.031403 
	C78.356865,41.996063 89.710678,41.960728 101.754875,42.356018 
	C105.409904,43.213974 109.536720,44.695778 111.696671,40.283356 
	C114.577942,34.397408 111.543930,30.122650 104.959488,30.038528 
	C104.301514,30.030123 103.644058,29.981430 102.610741,29.428755 
	C101.041412,29.246351 99.472092,29.063950 97.537781,28.099586 
	C87.330719,28.067194 77.123116,27.982477 66.917496,28.088861 
	C65.968109,28.098757 65.031349,29.319998 63.505611,29.857794 
	C59.159386,28.952444 55.269115,29.781948 51.260738,32.992882 
	C49.131611,34.676197 45.936340,35.949230 45.097481,38.129070 
	C43.402668,42.533173 42.386116,47.402023 42.168777,52.128811 
	C41.707588,62.159145 47.905685,68.791451 58.382397,70.510521 
	C66.726692,70.999214 75.083199,71.343063 83.409508,72.045036 
	C86.937881,72.342506 90.402863,73.392014 94.240852,74.728813 
	C96.360634,79.042519 97.494736,83.242516 92.243347,86.976608 
	C91.464027,87.307335 90.684708,87.638069 89.561279,87.173424 
	C75.376770,87.137482 61.192245,87.088913 47.007797,87.105156 
	C46.341816,87.105927 45.676502,87.683739 44.302418,88.140427 
	C43.882427,91.928406 43.336842,95.709938 43.141731,99.509460 
	C43.099518,100.331589 44.317490,101.218422 44.985107,102.008430 
	C44.985107,102.008430 44.915661,101.984459 45.318382,102.776535 
	C54.509014,102.806145 63.699650,102.835747 73.818054,102.949631 
	C79.928101,102.685165 86.038139,102.420700 92.538849,102.117592 
	C92.538849,102.117592 92.914604,102.003929 93.142784,102.633995 
	C93.501511,103.161385 94.248741,104.068901 94.160568,104.159019 
	C92.882027,105.465721 91.491501,106.662834 89.772942,108.543884 
	C87.678627,109.848846 85.584312,111.153809 83.489990,112.458771 
	C83.775337,112.901512 84.060677,113.344254 84.346016,113.786995 
	C85.941727,113.120094 87.537430,112.453194 89.855301,111.907593 
	C90.925797,111.616508 91.996300,111.325424 93.535538,110.980682 
	C93.535538,110.980682 93.989395,110.851830 94.805962,110.952667 
	C97.206619,110.609406 99.607277,110.266144 102.817276,110.029968 
	C111.893211,106.641418 120.969154,103.252869 130.700424,100.316902 
	C134.759949,100.870598 138.813599,101.840660 142.880112,101.897919 
	C153.952011,102.053848 153.954163,101.900925 152.697693,90.036606 
	C152.854172,88.692009 153.010651,87.347420 153.759415,85.793091 
	C154.853226,84.809547 155.947037,83.826012 157.656555,82.755608 
	C159.089630,82.477066 160.522705,82.198532 162.546524,82.284752 
	C167.023666,87.925133 171.500809,93.565514 176.380463,99.805786 
	C181.375412,103.076141 186.635208,102.607277 192.740112,100.874863 
	C197.999680,99.410675 198.201584,98.751961 194.699234,93.324196 
	C191.777634,88.878067 188.856033,84.431946 185.890167,79.372589 
	C185.293167,78.823822 184.696182,78.275055 184.083023,77.356346 
	C184.083023,77.356346 184.003784,76.994621 183.953461,76.387863 
	C183.351151,75.861504 182.748856,75.335144 182.178299,74.793755 
	C182.178299,74.793755 182.183167,74.758492 182.096832,74.080154 
	C180.444855,72.049355 178.792892,70.018555 176.971451,67.254631 
	C177.019791,66.506157 177.068130,65.757675 177.015656,65.003036 
	C177.015656,65.003036 177.010071,65.103874 177.527451,64.854492 
	C177.956039,64.261574 178.384628,63.668655 179.122131,62.455616 
	C181.787018,58.978214 184.451904,55.500813 187.631775,51.811764 
	C188.289536,50.956383 188.947296,50.100998 190.314651,49.135777 
	C190.565308,48.769630 190.815964,48.403484 191.044495,48.105827 
M268.521240,92.871902 
	C268.745636,92.596573 268.970032,92.321236 269.827148,91.687614 
	C273.996582,83.732353 273.689087,75.411095 271.758636,66.369072 
	C270.913269,65.515816 270.067871,64.662560 268.891876,63.203918 
	C265.820740,61.383640 262.912537,58.436104 259.646515,57.963936 
	C251.340561,56.763145 242.872192,56.703323 234.473618,56.117966 
	C230.643784,55.851036 226.825287,55.421680 222.382584,54.647617 
	C218.850906,50.648190 219.098557,45.775204 223.885284,41.065964 
	C224.964783,40.992931 226.044281,40.919895 227.964401,40.885742 
	C230.716644,40.611160 233.473877,40.062706 236.220230,40.112610 
	C244.960281,40.271423 253.695145,40.703423 262.434937,40.900982 
	C263.970825,40.935703 265.520752,40.348713 267.687683,39.947571 
	C268.405884,39.287823 269.124115,38.628075 269.952850,37.074654 
	C269.913879,34.665058 269.874878,32.255463 269.919678,28.980083 
	C269.177002,28.307119 268.467499,27.101349 267.685944,27.052685 
	C264.151428,26.832603 260.596558,26.939638 256.630463,26.156368 
	C245.397934,26.105021 234.165024,26.003971 222.933533,26.089123 
	C221.949844,26.096581 220.975418,27.325817 219.170135,27.900858 
	C210.188049,28.113762 204.275314,33.738468 202.101944,44.680878 
	C202.126434,45.104809 202.150909,45.528740 202.044327,46.743782 
	C202.422272,48.507797 202.800217,50.271809 203.048950,52.750942 
	C201.881485,60.117451 205.055145,64.508217 212.444122,65.992004 
	C214.991730,66.503586 217.470505,67.357872 220.111191,68.490295 
	C220.272583,68.765228 220.505768,68.949120 221.163696,69.803764 
	C222.333344,70.249046 223.501953,71.074867 224.672806,71.078033 
	C232.433243,71.099068 240.194153,70.943695 248.695709,70.974770 
	C250.463837,71.641243 252.231964,72.307724 254.645462,73.369690 
	C257.529694,79.699944 255.986679,83.206841 248.637878,85.179611 
	C241.095917,84.775749 233.547028,83.958870 226.013977,84.085396 
	C218.632919,84.209373 211.267975,85.293785 203.964996,85.961967 
	C203.964996,85.961967 203.946777,85.895164 203.521896,86.133232 
	C203.680603,86.443298 203.839325,86.753372 203.993393,87.978256 
	C203.993393,91.433647 203.993393,94.889038 203.993393,98.150482 
	C206.799408,98.918465 208.944489,99.505554 211.437103,100.887245 
	C225.489426,100.914856 239.541779,100.958771 253.593979,100.928490 
	C254.413879,100.926720 255.232498,100.324425 256.813751,100.020073 
	C260.977142,98.378197 265.807556,97.802361 268.521240,92.871902 
z"/>
<path fill="#4D6071" opacity="1.000000" stroke="none" 
	d="
M66.078316,42.072723 
	C60.222023,44.795856 61.149864,50.140186 60.791893,55.676453 
	C59.980171,56.951805 59.426392,57.638073 58.002235,59.402954 
	C63.257042,60.035641 67.415039,60.746590 71.600525,60.995628 
	C79.849548,61.486439 88.150932,61.359940 96.357155,62.203655 
	C100.926460,62.673435 106.202866,63.159817 107.637344,69.029617 
	C106.849243,69.322449 106.355629,69.595924 105.862015,69.869400 
	C106.574165,70.245949 107.286324,70.622490 108.019455,71.351852 
	C109.016052,72.806084 109.991669,73.907501 110.972504,75.339981 
	C110.977753,76.112511 110.977783,76.553986 110.658752,77.122955 
	C110.234047,79.173126 110.128418,81.095802 110.013077,83.374237 
	C109.666122,84.818573 109.328873,85.907135 108.618622,86.997131 
	C107.499229,86.999786 106.752831,87.000992 105.748428,86.801315 
	C104.325630,87.067055 103.160812,87.533684 101.741272,88.003555 
	C101.316742,88.010170 101.146942,88.013527 100.643204,87.874817 
	C99.963188,86.078506 99.711090,84.397682 99.252335,82.775291 
	C98.146294,78.863762 96.943588,74.979561 95.365921,71.073715 
	C89.352234,70.658058 83.746361,70.322655 78.154335,69.830048 
	C71.427650,69.237503 64.712730,68.511246 57.694077,67.652939 
	C54.235565,65.591309 50.273731,64.380890 48.076107,61.715740 
	C42.859119,55.388882 44.113525,43.740814 50.295296,35.940872 
	C51.065559,35.250305 51.538269,34.642178 52.017075,34.026962 
	C52.023174,34.019867 52.041988,34.018814 52.450737,34.027302 
	C56.901604,32.720531 60.943718,31.405272 65.401840,30.014820 
	C67.221382,29.983677 68.624901,30.027727 70.355469,30.327940 
	C73.987366,30.662592 77.292221,30.741083 80.826828,30.442158 
	C85.576538,30.076916 90.096519,30.089085 94.894928,30.477051 
	C99.545807,31.398582 103.918259,31.944317 108.290703,32.490051 
	C108.325699,32.154743 108.360703,31.819437 108.395699,31.484131 
	C106.592583,30.973232 104.789474,30.462332 102.986359,29.951431 
	C103.644058,29.981430 104.301514,30.030123 104.959488,30.038528 
	C111.543930,30.122650 114.577942,34.397408 111.696671,40.283356 
	C109.536720,44.695778 105.409904,43.213974 101.687119,41.873817 
	C103.950485,41.124649 106.281609,40.857681 108.612740,40.590717 
	C108.596176,40.267059 108.579613,39.943401 108.563049,39.619743 
	C93.797531,39.619743 79.032013,39.619743 63.848782,39.619743 
	C64.775513,40.639355 65.426910,41.356041 66.078316,42.072723 
M90.495331,65.657280 
	C90.698799,65.324127 90.902275,64.990982 91.105736,64.657829 
	C90.813400,64.575874 90.521072,64.493919 90.228745,64.411964 
	C90.175148,64.790161 90.121559,65.168358 90.495331,65.657280 
M109.447212,36.960152 
	C109.550400,36.733341 109.669579,36.511349 109.740791,36.274906 
	C109.752441,36.236248 109.552567,36.133877 109.450447,36.060955 
	C109.368752,36.297939 109.287048,36.534927 109.447212,36.960152 
z"/>
<path fill="#57697F" opacity="1.000000" stroke="none" 
	d="
M269.222504,63.809303 
	C270.067871,64.662560 270.913269,65.515816 271.477844,66.824028 
	C270.932587,69.101578 270.727722,70.935226 270.391693,72.744522 
	C269.631531,76.837585 268.806641,80.918633 267.742615,84.775543 
	C264.633026,83.349854 261.788910,82.153191 258.957672,80.535141 
	C259.544922,75.996292 258.393372,72.558365 254.693848,69.859650 
	C252.400787,69.058655 250.438568,67.995270 248.402878,67.828362 
	C242.618591,67.354095 236.804306,67.245773 230.950134,66.601242 
	C229.281448,65.473618 227.715454,64.292175 226.036331,64.100235 
	C223.014816,63.754837 219.925476,64.002670 217.523895,64.002670 
	C217.307831,60.619629 217.159027,58.289833 217.315308,56.143578 
	C219.415543,56.874706 221.210693,57.422291 223.352264,58.194168 
	C224.499451,58.596634 225.295120,58.900986 226.101807,58.933723 
	C235.503540,59.315281 244.920990,59.458130 254.301636,60.123863 
	C257.244507,60.332718 260.055634,62.046127 262.991211,62.830994 
	C265.011108,63.371040 267.141510,63.497818 269.222504,63.809303 
z"/>
<path fill="#53657A" opacity="1.000000" stroke="none" 
	d="
M217.010223,55.960037 
	C217.159027,58.289833 217.307831,60.619629 217.523895,64.002670 
	C219.925476,64.002670 223.014816,63.754837 226.036331,64.100235 
	C227.715454,64.292175 229.281448,65.473618 230.497849,66.609032 
	C226.725082,67.357849 223.352905,67.706726 219.980728,68.055611 
	C217.470505,67.357872 214.991730,66.503586 212.444122,65.992004 
	C205.055145,64.508217 201.881485,60.117451 203.432587,52.245399 
	C205.625748,49.142673 205.972580,46.960201 202.175400,45.952671 
	C202.150909,45.528740 202.126434,45.104809 202.471695,44.275486 
	C204.553940,41.567810 206.266418,39.265526 208.139008,37.239319 
	C208.171661,39.783806 208.044205,42.052219 207.988373,43.046146 
	C210.903412,44.127396 213.406876,45.055984 215.856293,46.355015 
	C216.204895,49.803654 216.607559,52.881847 217.010223,55.960037 
z"/>
<path fill="#3D5062" opacity="1.000000" stroke="none" 
	d="
M131.990097,68.934639 
	C131.990097,55.819733 131.990097,42.704826 131.990097,29.529982 
	C138.355301,26.816349 144.614487,27.993958 150.607529,29.531351 
	C151.873383,29.856081 152.208191,33.810188 152.753540,36.857071 
	C152.356094,41.929790 152.332504,46.252575 151.915466,50.537067 
	C151.765564,52.077049 150.668335,53.524818 149.973236,54.593430 
	C149.943008,47.005199 149.943008,39.838203 149.943008,32.142471 
	C147.014465,31.788441 143.933182,31.348698 140.837830,31.060001 
	C137.514206,30.750017 136.039581,32.305855 135.961472,35.702080 
	C135.736786,45.470058 135.329544,55.233833 134.991180,65.435631 
	C134.982834,67.903824 134.977341,69.935646 134.626648,71.978767 
	C133.590958,71.985344 132.900467,71.980629 132.162384,71.597672 
	C132.073242,70.457825 132.031662,69.696236 131.990097,68.934639 
z"/>
<path fill="#277178" opacity="1.000000" stroke="none" 
	d="
M154.110611,58.824368 
	C159.376511,53.527214 164.707336,48.292595 169.887695,42.913082 
	C174.017654,38.624359 177.468933,33.461231 182.218140,30.090530 
	C184.331390,28.590666 188.896454,30.545332 192.967468,31.265072 
	C194.381592,31.727421 195.176910,31.856739 195.966522,32.362122 
	C194.309143,35.474197 192.657501,38.210209 190.676620,40.950500 
	C189.909073,40.948387 189.470795,40.941998 189.040421,40.550980 
	C189.025879,37.581966 191.039062,34.567410 187.264572,32.814011 
	C183.518143,31.073654 182.152802,34.339500 180.429047,36.184750 
	C173.959656,43.110016 167.839417,50.362450 161.339172,57.257393 
	C158.907181,59.837055 155.793274,61.773823 153.112091,63.751793 
	C153.496796,63.006443 153.759705,62.513004 154.099701,61.625458 
	C154.154724,60.429016 154.132660,59.626694 154.110611,58.824368 
z"/>
<path fill="#354859" opacity="1.000000" stroke="none" 
	d="
M107.931824,69.010277 
	C106.202866,63.159817 100.926460,62.673435 96.357155,62.203655 
	C88.150932,61.359940 79.849548,61.486439 71.600525,60.995628 
	C67.415039,60.746590 63.257042,60.035641 58.002235,59.402954 
	C59.426392,57.638073 59.980171,56.951805 60.800896,56.123859 
	C68.871384,59.726341 77.160255,58.797852 85.427849,58.804363 
	C91.525093,58.809166 97.596603,58.348827 103.662697,61.114731 
	C112.407349,65.101944 114.689827,72.415901 113.307304,82.534958 
	C113.038322,84.503624 112.886635,86.488327 112.042908,88.738846 
	C110.934608,89.005562 110.464249,88.999069 109.874344,88.740250 
	C109.500412,87.990509 109.246017,87.493103 108.991615,86.995697 
	C109.328873,85.907135 109.666122,84.818573 110.235367,83.063416 
	C110.637512,80.596367 110.807663,78.795914 110.977814,76.995453 
	C110.977783,76.553986 110.977753,76.112511 110.920181,75.011978 
	C109.922821,72.883858 108.982986,71.414787 108.018822,69.711441 
	C107.994492,69.477165 107.931824,69.010277 107.931824,69.010277 
z"/>
<path fill="#3E5263" opacity="1.000000" stroke="none" 
	d="
M207.978897,36.963242 
	C206.266418,39.265526 204.553940,41.567810 202.518036,43.959747 
	C204.275314,33.738468 210.188049,28.113762 220.052414,27.948360 
	C232.888550,27.866983 244.842407,27.738102 257.156128,27.857525 
	C261.622650,28.685839 265.729279,29.265852 269.835907,29.845865 
	C269.874878,32.255463 269.913879,34.665058 269.596619,37.471313 
	C268.481720,37.571686 267.723083,37.275398 266.898804,36.711159 
	C266.045380,34.718643 265.257568,32.994083 264.013733,30.271196 
	C263.908020,30.261776 262.478027,30.029034 261.047180,30.023623 
	C250.297745,29.982952 239.547729,29.936247 228.798981,30.024158 
	C226.867340,30.039957 224.940735,30.668600 222.598679,31.012854 
	C220.124054,31.323044 218.062561,31.634670 215.801865,32.088951 
	C215.340805,32.435886 215.134796,32.686153 214.982391,32.980949 
	C214.980118,32.979488 214.956711,32.961636 214.586075,32.954620 
	C212.136597,34.286148 210.057739,35.624695 207.978897,36.963242 
z"/>
<path fill="#425266" opacity="1.000000" stroke="none" 
	d="
M211.089584,100.092644 
	C208.944489,99.505554 206.799408,98.918465 203.993393,98.150482 
	C203.993393,94.889038 203.993393,91.433647 204.127991,87.222412 
	C204.157303,86.276093 204.052048,86.085632 203.946777,85.895164 
	C203.946777,85.895164 203.964996,85.961967 204.369278,86.160309 
	C216.880081,86.509651 228.986603,86.660652 240.981628,87.198288 
	C237.586105,88.076675 234.302109,88.568413 230.559326,89.034134 
	C226.741730,88.998482 223.382935,88.988853 219.618256,88.968552 
	C218.129196,88.961700 217.046005,88.965508 215.521103,88.959366 
	C212.332733,89.809471 208.083481,86.708115 206.948090,92.354858 
	C205.817169,95.430740 206.738174,96.961708 209.673157,96.882378 
	C211.467133,96.833878 213.249908,96.369972 215.407104,96.244881 
	C218.533630,96.628677 221.290756,96.860229 224.041092,97.393379 
	C224.032944,98.300697 224.031586,98.906418 223.575073,99.613358 
	C219.109818,99.840599 215.099701,99.966621 211.089584,100.092644 
z"/>
<path fill="#354859" opacity="1.000000" stroke="none" 
	d="
M92.914604,102.003929 
	C92.914604,102.003929 92.538849,102.117592 92.006775,101.876595 
	C85.312401,101.774117 79.150116,101.912636 72.523376,101.990593 
	C63.011173,101.948174 53.963417,101.966316 44.915661,101.984459 
	C44.915661,101.984459 44.985107,102.008430 45.007500,101.582260 
	C45.377331,96.816757 45.724766,92.477432 46.518471,88.109840 
	C49.642292,88.209648 52.319851,88.337715 55.000412,88.759171 
	C55.006302,89.633972 55.009186,90.215378 54.568367,90.828705 
	C53.791840,90.876755 53.458778,90.888954 53.126240,90.909622 
	C50.275856,91.086761 46.867233,90.086952 46.909473,95.027626 
	C46.951874,99.987236 50.357681,98.943382 53.204269,99.009872 
	C66.127663,99.311760 79.051857,99.579521 92.330170,99.887451 
	C93.998215,100.291588 95.311852,100.667847 96.582458,101.208771 
	C96.539429,101.373428 96.544144,101.713783 96.179749,101.721169 
	C94.848434,101.820343 93.881516,101.912140 92.914604,102.003929 
z"/>
<path fill="#457887" opacity="1.000000" stroke="none" 
	d="
M187.116791,52.023415 
	C184.451904,55.500813 181.787018,58.978214 178.682602,62.848511 
	C177.832077,63.862225 177.421066,64.483047 177.010071,65.103867 
	C177.010071,65.103874 177.015656,65.003036 176.721863,65.084290 
	C173.396606,67.230255 170.365173,69.294960 167.151917,71.067932 
	C166.645691,70.186127 166.321274,69.596062 166.146484,68.696640 
	C169.522583,64.558784 172.754059,60.734478 175.973160,56.899776 
	C177.339096,55.272621 178.679031,53.623631 180.357605,51.909409 
	C182.782547,50.216381 184.880692,48.598511 186.985260,46.986469 
	C186.991669,46.992298 187.005707,47.003834 186.980774,47.332741 
	C187.009506,49.115570 187.063156,50.569496 187.116791,52.023415 
z"/>
<path fill="#516577" opacity="1.000000" stroke="none" 
	d="
M194.840820,94.021461 
	C198.201584,98.751961 197.999680,99.410675 192.065521,100.671707 
	C188.361908,100.111443 185.292389,99.946022 182.320557,99.318222 
	C180.781250,98.993042 179.414993,97.848709 178.094955,96.773178 
	C178.044647,94.790886 177.869949,93.109863 177.689331,91.427719 
	C180.122208,90.287537 182.560974,89.148499 185.323486,88.114716 
	C188.674591,90.212700 190.098679,94.746140 194.840820,94.021461 
z"/>
<path fill="#4B6274" opacity="1.000000" stroke="none" 
	d="
M184.999756,88.009453 
	C182.560974,89.148499 180.122208,90.287537 177.689331,91.427719 
	C177.869949,93.109863 178.044647,94.790886 177.792511,96.853912 
	C176.903091,97.892578 176.440506,98.549232 175.977936,99.205887 
	C171.500809,93.565514 167.023666,87.925133 162.346558,81.848969 
	C162.350967,80.919296 162.555344,80.425400 163.070114,80.070724 
	C164.922455,81.472824 166.464417,82.735687 168.257980,84.217651 
	C169.404114,85.138611 170.668991,85.654411 171.130783,86.573647 
	C173.468369,91.226768 175.916870,89.694450 178.004288,86.629585 
	C179.347580,84.657295 180.018616,82.227142 181.235168,80.235847 
	C182.652817,82.982811 183.826294,85.496132 184.999756,88.009453 
z"/>
<path fill="#415368" opacity="1.000000" stroke="none" 
	d="
M269.057190,63.506611 
	C267.141510,63.497818 265.011108,63.371040 262.991211,62.830994 
	C260.055634,62.046127 257.244507,60.332718 254.301636,60.123863 
	C244.920990,59.458130 235.503540,59.315281 226.101807,58.933723 
	C225.295120,58.900986 224.499451,58.596634 223.350433,57.831680 
	C223.002014,56.518600 223.001831,55.792297 223.001648,55.065994 
	C226.825287,55.421680 230.643784,55.851036 234.473618,56.117966 
	C242.872192,56.703323 251.340561,56.763145 259.646515,57.963936 
	C262.912537,58.436104 265.820740,61.383640 269.057190,63.506611 
z"/>
<path fill="#425566" opacity="1.000000" stroke="none" 
	d="
M49.997742,36.023312 
	C44.113525,43.740814 42.859119,55.388882 48.076107,61.715740 
	C50.273731,64.380890 54.235565,65.591309 57.681118,68.009460 
	C57.975864,69.028114 57.984932,69.500313 57.993996,69.972511 
	C47.905685,68.791451 41.707588,62.159145 42.168777,52.128811 
	C42.386116,47.402023 43.402668,42.533173 45.097481,38.129070 
	C45.936340,35.949230 49.131611,34.676197 51.634422,33.223160 
	C52.019402,33.641895 52.030693,33.830357 52.041988,34.018814 
	C52.041988,34.018814 52.023174,34.019867 51.760529,34.159706 
	C50.997837,34.874134 50.497791,35.448723 49.997742,36.023312 
z"/>
<path fill="#293C4D" opacity="1.000000" stroke="none" 
	d="
M66.540680,42.052063 
	C65.426910,41.356041 64.775513,40.639355 63.848782,39.619743 
	C79.032013,39.619743 93.797531,39.619743 108.563049,39.619743 
	C108.579613,39.943401 108.596176,40.267059 108.612740,40.590717 
	C106.281609,40.857681 103.950485,41.124649 101.341927,41.658501 
	C89.710678,41.960728 78.356865,41.996063 66.540680,42.052063 
z"/>
<path fill="#477784" opacity="1.000000" stroke="none" 
	d="
M130.045105,99.864319 
	C120.969154,103.252869 111.893211,106.641418 102.375374,109.671112 
	C101.904099,108.903046 101.874718,108.493843 102.193283,107.970123 
	C110.694252,104.229988 118.847282,100.604355 127.346283,96.995239 
	C128.787506,97.339066 129.882736,97.666374 130.998596,97.968475 
	C131.019211,97.943275 131.078186,97.970901 130.949097,98.208122 
	C130.561707,98.918335 130.303406,99.391327 130.045105,99.864319 
z"/>
<path fill="#364858" opacity="1.000000" stroke="none" 
	d="
M266.964447,36.979115 
	C267.723083,37.275398 268.481720,37.571686 269.541321,37.918152 
	C269.124115,38.628075 268.405884,39.287823 267.060242,39.718510 
	C254.545425,39.326710 242.658203,39.109325 230.770554,39.084122 
	C229.556213,39.081547 228.339432,40.231644 227.123779,40.846855 
	C226.044281,40.919895 224.964783,40.992931 223.247223,40.869461 
	C222.029709,40.440655 221.450256,40.208351 220.893616,39.726448 
	C220.932770,39.310490 220.949097,39.144131 221.211456,38.847900 
	C221.964142,38.199554 222.470779,37.681084 223.398621,37.138298 
	C225.225952,37.035629 226.632080,36.957275 228.504272,36.891796 
	C241.635040,36.929485 254.299744,36.954300 266.964447,36.979115 
z"/>
<path fill="#277178" opacity="1.000000" stroke="none" 
	d="
M113.018387,94.210663 
	C118.752487,89.835060 124.561966,85.552139 130.154755,81.002823 
	C131.226654,80.130913 131.445892,78.210793 132.489365,76.391548 
	C133.641418,76.022636 134.362625,76.036453 135.050781,76.430344 
	C134.991989,77.578545 134.966202,78.346672 134.704163,79.355156 
	C133.634750,81.723289 132.801605,83.851051 131.630173,86.053474 
	C128.188477,88.073380 125.085037,90.018631 121.738571,92.199173 
	C118.678856,94.311928 115.862167,96.189384 113.036934,97.680237 
	C113.025055,96.265976 113.021721,95.238319 113.018387,94.210663 
z"/>
<path fill="#496478" opacity="1.000000" stroke="none" 
	d="
M168.006363,83.998558 
	C166.464417,82.735687 164.922455,81.472824 163.261795,79.783524 
	C167.809036,75.567307 172.474976,71.777527 177.140930,67.987762 
	C178.792892,70.018555 180.444855,72.049355 181.730530,74.483398 
	C180.536606,74.935059 179.708969,74.983490 178.506195,75.028656 
	C171.990631,76.083855 168.609421,79.080513 168.006363,83.998558 
z"/>
<path fill="#2F6574" opacity="1.000000" stroke="none" 
	d="
M135.083817,76.050270 
	C134.362625,76.036453 133.641418,76.022636 132.561935,76.010963 
	C132.141937,75.573822 132.080246,75.134552 132.029861,74.019669 
	C132.097427,72.888016 132.153702,72.431961 132.209961,71.975906 
	C132.900467,71.980629 133.590958,71.985344 134.867554,72.086166 
	C136.968246,70.121552 138.482834,68.060837 140.364655,65.930183 
	C145.082947,64.910057 148.318420,62.792610 149.041412,57.687054 
	C149.435211,56.906651 149.765121,56.418697 150.342194,56.204895 
	C150.747025,57.952267 150.904678,59.425491 150.987152,61.246014 
	C149.830917,63.001595 148.854660,64.507851 147.647888,65.798615 
	C144.762787,68.884537 141.769119,71.868958 138.557816,74.945908 
	C137.855072,75.280556 137.413788,75.563652 136.658203,75.888168 
	C135.923874,75.969826 135.503845,76.010048 135.083817,76.050270 
z"/>
<path fill="#293C4D" opacity="1.000000" stroke="none" 
	d="
M58.188194,70.241516 
	C57.984932,69.500313 57.975864,69.028114 57.979759,68.199394 
	C64.712730,68.511246 71.427650,69.237503 78.154335,69.830048 
	C83.746361,70.322655 89.352234,70.658058 95.339050,71.374657 
	C95.116310,72.490723 94.506477,73.295219 93.896652,74.099716 
	C90.402863,73.392014 86.937881,72.342506 83.409508,72.045036 
	C75.083199,71.343063 66.726692,70.999214 58.188194,70.241516 
z"/>
<path fill="#46596D" opacity="1.000000" stroke="none" 
	d="
M178.881348,75.031921 
	C179.708969,74.983490 180.536606,74.935059 181.773697,74.822563 
	C182.183167,74.758492 182.178299,74.793755 182.181488,75.126556 
	C182.791031,75.971115 183.397415,76.482864 184.003784,76.994621 
	C184.003784,76.994621 184.083023,77.356346 184.125671,77.861908 
	C184.757034,78.906921 185.345734,79.446365 185.934433,79.985817 
	C188.856033,84.431946 191.777634,88.878067 194.770020,93.672829 
	C190.098679,94.746140 188.674591,90.212700 185.323502,88.114716 
	C183.826294,85.496132 182.652817,82.982811 181.169205,79.902298 
	C180.199829,77.900711 179.540588,76.466309 178.881348,75.031921 
z"/>
<path fill="#DFF2FE" opacity="1.000000" stroke="none" 
	d="
M94.616493,30.101254 
	C90.096519,30.089085 85.576538,30.076916 80.539787,30.088457 
	C76.691483,30.098705 73.359955,30.085241 70.028427,30.071777 
	C68.624901,30.027727 67.221382,29.983677 65.180283,29.965080 
	C64.542717,29.990536 64.088722,29.978794 64.088722,29.978794 
	C65.031349,29.319998 65.968109,28.098757 66.917496,28.088861 
	C77.123116,27.982477 87.330719,28.067194 97.423050,28.538263 
	C96.411049,29.351711 95.513771,29.726482 94.616493,30.101254 
z"/>
<path fill="#3E5263" opacity="1.000000" stroke="none" 
	d="
M220.870789,39.976048 
	C221.450256,40.208351 222.029709,40.440655 222.840057,40.888077 
	C219.098557,45.775204 218.850906,50.648190 222.692108,54.856804 
	C223.001831,55.792297 223.002014,56.518600 223.004028,57.607391 
	C221.210693,57.422291 219.415543,56.874706 217.315292,56.143581 
	C216.607559,52.881847 216.204895,49.803654 215.902405,45.992298 
	C216.358002,43.843372 216.713470,42.427605 217.369629,40.870472 
	C218.737152,40.478085 219.803970,40.227066 220.870789,39.976048 
z"/>
<path fill="#3A6D78" opacity="1.000000" stroke="none" 
	d="
M187.374283,51.917591 
	C187.063156,50.569496 187.009506,49.115570 187.266998,47.157948 
	C188.720718,44.751575 189.863297,42.848904 191.005875,40.946228 
	C192.657501,38.210209 194.309143,35.474197 195.993774,32.180073 
	C196.026749,31.621965 196.055084,31.254717 196.055084,31.254715 
	C196.787170,31.195164 197.519272,31.135612 198.663422,31.279716 
	C199.385300,31.357658 199.695114,31.231945 200.004944,31.106232 
	C200.423523,31.864498 200.842117,32.622768 200.791824,33.761063 
	C199.894531,34.794205 199.466125,35.447323 199.037720,36.100441 
	C197.110062,39.195225 195.182419,42.290012 192.787933,45.766800 
	C191.918350,46.808636 191.515610,47.468468 191.112869,48.128300 
	C191.112869,48.128300 191.044495,48.105827 190.779129,48.227924 
	C190.210861,48.648552 189.907959,48.947079 189.605042,49.245609 
	C188.947296,50.100998 188.289536,50.956383 187.374283,51.917591 
z"/>
<path fill="#47596A" opacity="1.000000" stroke="none" 
	d="
M94.068748,74.414261 
	C94.506477,73.295219 95.116310,72.490723 95.752998,71.385284 
	C96.943588,74.979561 98.146294,78.863762 99.252335,82.775291 
	C99.711090,84.397682 99.963188,86.078506 100.591690,88.181747 
	C100.251511,89.419098 99.628899,90.207451 98.607574,90.992355 
	C96.468056,90.648163 94.727264,90.307419 92.996056,89.567894 
	C92.954140,88.371414 92.902634,87.573715 92.851135,86.776016 
	C97.494736,83.242516 96.360634,79.042519 94.068748,74.414261 
z"/>
<path fill="#CADBEA" opacity="1.000000" stroke="none" 
	d="
M241.093124,86.811653 
	C228.986603,86.660652 216.880081,86.509651 204.334763,86.157654 
	C211.267975,85.293785 218.632919,84.209373 226.013977,84.085396 
	C233.547028,83.958870 241.095917,84.775749 248.759323,85.829636 
	C248.525803,86.672455 248.170853,86.865250 247.519287,86.992561 
	C245.179489,86.888603 243.136307,86.850128 241.093124,86.811653 
z"/>
<path fill="#86AEBC" opacity="1.000000" stroke="none" 
	d="
M153.167114,86.002823 
	C153.010651,87.347420 152.854172,88.692009 152.478683,90.309303 
	C151.951202,90.494873 151.699539,90.578499 151.299438,90.506653 
	C148.696365,91.562721 146.298523,92.945023 143.618530,94.372498 
	C143.169296,94.509247 143.002243,94.600838 142.545685,94.745186 
	C141.818451,95.161995 141.380722,95.526047 140.613098,96.033661 
	C138.219101,96.834694 136.154999,97.492157 133.715073,98.108444 
	C132.585556,98.035133 131.831879,98.003014 131.078186,97.970901 
	C131.078186,97.970901 131.019211,97.943275 131.148346,97.662018 
	C136.590988,94.048897 141.904495,90.717018 147.592285,87.306778 
	C149.700073,86.819878 151.433609,86.411354 153.167114,86.002823 
z"/>
<path fill="#28616E" opacity="1.000000" stroke="none" 
	d="
M112.785378,94.135666 
	C113.021721,95.238319 113.025055,96.265976 112.799118,97.911377 
	C109.268379,100.738724 105.903023,102.862389 102.718918,105.229858 
	C102.075752,105.708061 102.118713,107.109077 101.845352,108.084641 
	C101.874718,108.493843 101.904099,108.903046 101.970703,109.617569 
	C99.607277,110.266144 97.206619,110.609406 94.386337,110.526611 
	C93.952629,109.349121 93.938553,108.597687 94.052094,107.531326 
	C96.781662,105.472000 99.383598,103.727608 102.344238,102.029976 
	C105.094307,99.733788 107.485664,97.390831 110.158127,94.924057 
	C110.984726,94.516518 111.530212,94.232796 112.075699,93.949074 
	C112.075699,93.949074 112.552368,94.060669 112.785378,94.135666 
z"/>
<path fill="#3E5065" opacity="1.000000" stroke="none" 
	d="
M220.045959,68.272949 
	C223.352905,67.706726 226.725082,67.357849 230.549545,67.001175 
	C236.804306,67.245773 242.618591,67.354095 248.402878,67.828362 
	C250.438568,67.995270 252.400787,69.058655 254.563263,70.146545 
	C254.486694,71.378311 254.243393,72.176254 254.000092,72.974197 
	C252.231964,72.307724 250.463837,71.641243 248.162445,70.565041 
	C246.269424,69.767792 244.913605,69.062363 243.549286,69.045509 
	C235.970917,68.951927 228.390472,69.025566 220.810745,69.041969 
	C220.505768,68.949120 220.272583,68.765228 220.045959,68.272949 
z"/>
<path fill="#334558" opacity="1.000000" stroke="none" 
	d="
M92.547241,86.876312 
	C92.902634,87.573715 92.954140,88.371414 92.570740,89.585373 
	C82.604851,90.332344 73.075050,90.749557 63.541336,90.879372 
	C62.407154,90.894821 61.251617,89.341652 60.517426,88.451500 
	C70.587708,88.247879 80.246544,88.108337 89.905388,87.968796 
	C90.684708,87.638069 91.464027,87.307335 92.547241,86.876312 
z"/>
<path fill="#8396A5" opacity="1.000000" stroke="none" 
	d="
M227.544098,40.866295 
	C228.339432,40.231644 229.556213,39.081547 230.770554,39.084122 
	C242.658203,39.109325 254.545425,39.326710 266.748474,39.769146 
	C265.520752,40.348713 263.970825,40.935703 262.434937,40.900982 
	C253.695145,40.703423 244.960281,40.271423 236.220230,40.112610 
	C233.473877,40.062706 230.716644,40.611160 227.544098,40.866295 
z"/>
<path fill="#425566" opacity="1.000000" stroke="none" 
	d="
M268.008057,85.004562 
	C268.806641,80.918633 269.631531,76.837585 270.391693,72.744522 
	C270.727722,70.935226 270.932587,69.101578 271.522675,67.121735 
	C273.689087,75.411095 273.996582,83.732353 269.210999,91.843323 
	C268.395691,91.988075 268.196472,91.977119 268.008270,91.748993 
	C268.019287,91.531822 268.030701,91.097061 268.019897,90.705841 
	C267.968781,89.538391 267.928436,88.762169 267.909302,87.613464 
	C267.956360,86.495506 267.982208,85.750038 268.008057,85.004562 
z"/>
<path fill="#D9EBF8" opacity="1.000000" stroke="none" 
	d="
M89.733337,87.571106 
	C80.246544,88.108337 70.587708,88.247879 60.163979,88.316589 
	C58.905796,88.307755 58.412502,88.369751 57.556419,88.355400 
	C56.461559,88.341293 55.729481,88.403534 54.997406,88.465775 
	C52.319851,88.337715 49.642292,88.209648 46.262928,88.001984 
	C45.377705,87.945862 45.194294,87.969345 45.010880,87.992821 
	C45.676502,87.683739 46.341816,87.105927 47.007797,87.105156 
	C61.192245,87.088913 75.376770,87.137482 89.733337,87.571106 
z"/>
<path fill="#46596D" opacity="1.000000" stroke="none" 
	d="
M254.322784,73.171951 
	C254.243393,72.176254 254.486694,71.378311 254.860565,70.293465 
	C258.393372,72.558365 259.544922,75.996292 258.719910,80.788338 
	C256.973572,83.597878 255.477936,85.732834 253.578644,87.916306 
	C251.388641,87.662560 249.602264,87.360306 247.815903,87.058044 
	C248.170853,86.865250 248.525803,86.672455 249.003922,86.195572 
	C255.986679,83.206841 257.529694,79.699944 254.322784,73.171951 
z"/>
<path fill="#607586" opacity="1.000000" stroke="none" 
	d="
M151.504669,90.832886 
	C151.699539,90.578499 151.951202,90.494873 152.425400,90.710487 
	C153.954163,101.900925 153.952011,102.053848 142.880112,101.897919 
	C138.813599,101.840660 134.759949,100.870598 130.372772,100.090614 
	C130.303406,99.391327 130.561707,98.918335 130.949097,98.208115 
	C131.831879,98.003014 132.585556,98.035133 133.840866,98.473724 
	C137.858307,99.271881 141.382172,99.603210 144.887985,100.070030 
	C149.613113,100.699211 151.809677,98.911201 150.995972,93.607285 
	C151.194901,92.414154 151.349777,91.623520 151.504669,90.832886 
z"/>
<path fill="#82A8BA" opacity="1.000000" stroke="none" 
	d="
M177.056183,67.621193 
	C172.474976,71.777527 167.809036,75.567307 162.951401,79.644287 
	C162.555344,80.425400 162.350967,80.919296 162.051178,81.666595 
	C160.522705,82.198532 159.089630,82.477066 157.337128,82.499283 
	C157.017334,81.842949 157.016983,81.442924 157.335739,80.943207 
	C160.881134,77.682228 164.107437,74.520950 167.333725,71.359665 
	C170.365173,69.294960 173.396606,67.230255 176.772263,65.087372 
	C177.068130,65.757675 177.019791,66.506157 177.056183,67.621193 
z"/>
<path fill="#E4F7FF" opacity="1.000000" stroke="none" 
	d="
M256.796265,27.609222 
	C244.842407,27.738102 232.888550,27.866983 220.465698,27.991711 
	C220.975418,27.325817 221.949844,26.096581 222.933533,26.089123 
	C234.165024,26.003971 245.397934,26.105021 256.685181,26.678759 
	C256.739868,27.201149 256.796265,27.609222 256.796265,27.609222 
z"/>
<path fill="#487E8C" opacity="1.000000" stroke="none" 
	d="
M157.016632,81.042908 
	C157.016983,81.442924 157.017334,81.842949 157.029266,82.542725 
	C155.947037,83.826012 154.853226,84.809547 153.463272,85.897957 
	C151.433609,86.411354 149.700073,86.819878 147.559113,86.985764 
	C147.442749,85.488701 147.733856,84.234283 148.101837,82.644287 
	C150.125275,80.535431 152.071808,78.762169 154.324142,77.094681 
	C155.425507,78.481277 156.221069,79.762093 157.016632,81.042908 
z"/>
<path fill="#7195A5" opacity="1.000000" stroke="none" 
	d="
M151.062317,60.898720 
	C150.904678,59.425491 150.747025,57.952267 150.309357,55.976929 
	C150.029343,55.474812 150.003433,55.014664 150.003448,55.014664 
	C150.668335,53.524818 151.765564,52.077049 151.915466,50.537067 
	C152.332504,46.252575 152.356094,41.929790 152.783707,37.287270 
	C153.366287,43.939983 153.700226,50.927551 154.072388,58.369743 
	C154.132660,59.626694 154.154724,60.429016 153.785553,61.570877 
	C152.616989,61.573181 151.839645,61.235950 151.062317,60.898720 
z"/>
<path fill="#46596D" opacity="1.000000" stroke="none" 
	d="
M268.030701,91.097061 
	C268.030701,91.097061 268.019287,91.531822 268.011108,92.012497 
	C268.003510,92.668098 268.004089,92.843018 268.004639,93.017929 
	C265.807556,97.802361 260.977142,98.378197 256.158691,99.905746 
	C255.319809,99.724442 255.135971,99.657455 254.943359,99.268570 
	C254.944778,98.513763 254.954971,98.080872 254.966827,97.377426 
	C254.994797,96.747482 255.021118,96.388092 255.391296,95.879440 
	C258.151489,95.136177 260.567841,94.542160 263.271545,93.792419 
	C265.049500,92.790154 266.540100,91.943604 268.030701,91.097061 
z"/>
<path fill="#53657A" opacity="1.000000" stroke="none" 
	d="
M220.987213,69.422867 
	C228.390472,69.025566 235.970917,68.951927 243.549286,69.045509 
	C244.913605,69.062363 246.269424,69.767792 247.792038,70.500519 
	C240.194153,70.943695 232.433243,71.099068 224.672806,71.078033 
	C223.501953,71.074867 222.333344,70.249046 220.987213,69.422867 
z"/>
<path fill="#D4E4F4" opacity="1.000000" stroke="none" 
	d="
M254.952133,99.590477 
	C255.135971,99.657455 255.319809,99.724442 255.777679,99.896507 
	C255.232498,100.324425 254.413879,100.926720 253.593979,100.928490 
	C239.541779,100.958771 225.489426,100.914856 211.263336,100.489944 
	C215.099701,99.966621 219.109818,99.840599 224.033081,99.708755 
	C234.948196,99.665451 244.950165,99.627960 254.952133,99.590477 
z"/>
<path fill="#354859" opacity="1.000000" stroke="none" 
	d="
M176.179199,99.505836 
	C176.440506,98.549232 176.903091,97.892578 177.668106,97.155182 
	C179.414993,97.848709 180.781250,98.993042 182.320557,99.318222 
	C185.292389,99.946022 188.361908,100.111443 191.686432,100.689713 
	C186.635208,102.607277 181.375412,103.076141 176.179199,99.505836 
z"/>
<path fill="#546779" opacity="1.000000" stroke="none" 
	d="
M72.987823,102.051155 
	C79.150116,101.912636 85.312401,101.774117 91.811440,101.895920 
	C86.038139,102.420700 79.928101,102.685165 73.377716,102.703880 
	C72.937386,102.458130 72.987823,102.051155 72.987823,102.051155 
z"/>
<path fill="#2B5767" opacity="1.000000" stroke="none" 
	d="
M112.058487,93.539886 
	C111.530212,94.232796 110.984726,94.516518 109.814194,94.924698 
	C107.580940,95.859772 105.972717,96.670372 104.305099,97.105881 
	C106.161758,94.151382 108.077820,91.571983 109.993881,88.992584 
	C110.464249,88.999069 110.934608,89.005562 111.758469,89.022705 
	C112.088402,90.399139 112.064835,91.764923 112.058487,93.539886 
z"/>
<path fill="#3A4C5D" opacity="1.000000" stroke="none" 
	d="
M63.797165,29.918293 
	C64.088722,29.978794 64.542717,29.990536 64.764275,30.040274 
	C60.943718,31.405272 56.901604,32.720531 52.450737,34.027302 
	C52.030693,33.830357 52.019402,33.641895 51.992599,33.170578 
	C55.269115,29.781948 59.159386,28.952444 63.797165,29.918293 
z"/>
<path fill="#B2E2EF" opacity="1.000000" stroke="none" 
	d="
M101.985542,101.983208 
	C99.383598,103.727608 96.781662,105.472000 93.673668,107.567909 
	C92.154335,107.908340 91.141052,107.897263 90.127769,107.886185 
	C91.491501,106.662834 92.882027,105.465721 94.160568,104.159019 
	C94.248741,104.068901 93.501511,103.161385 93.028694,102.318962 
	C93.881516,101.912140 94.848434,101.820343 96.502151,101.678192 
	C97.482170,101.323540 97.775383,101.019241 98.432678,100.641800 
	C99.774826,100.441086 100.752884,100.313515 101.800110,100.634476 
	C101.908035,101.383072 101.946785,101.683136 101.985542,101.983208 
z"/>
<path fill="#364858" opacity="1.000000" stroke="none" 
	d="
M94.894928,30.477051 
	C95.513771,29.726482 96.411049,29.351711 97.605545,28.929245 
	C99.472092,29.063950 101.041412,29.246351 102.798553,29.690094 
	C104.789474,30.462332 106.592583,30.973232 108.395699,31.484131 
	C108.360703,31.819437 108.325699,32.154743 108.290703,32.490051 
	C103.918259,31.944317 99.545807,31.398582 94.894928,30.477051 
z"/>
<path fill="#D4E4F4" opacity="1.000000" stroke="none" 
	d="
M72.523376,101.990593 
	C72.987823,102.051155 72.937386,102.458130 72.913834,102.661743 
	C63.699650,102.835747 54.509014,102.806145 45.117020,102.380493 
	C53.963417,101.966316 63.011173,101.948174 72.523376,101.990593 
z"/>
<path fill="#4B6274" opacity="1.000000" stroke="none" 
	d="
M89.950356,108.215034 
	C91.141052,107.897263 92.154335,107.908340 93.546043,107.882828 
	C93.938553,108.597687 93.952629,109.349121 93.978050,110.476196 
	C93.989395,110.851830 93.535538,110.980682 92.960289,111.013016 
	C91.301071,111.292336 90.217102,111.539314 89.133133,111.786293 
	C87.537430,112.453194 85.941727,113.120094 84.346016,113.786995 
	C84.060677,113.344254 83.775337,112.901512 83.489990,112.458771 
	C85.584312,111.153809 87.678627,109.848846 89.950356,108.215034 
z"/>
<path fill="#738496" opacity="1.000000" stroke="none" 
	d="
M44.656647,88.066620 
	C45.194294,87.969345 45.377705,87.945862 45.816658,88.030243 
	C45.724766,92.477432 45.377331,96.816757 44.992455,101.615768 
	C44.317490,101.218422 43.099518,100.331589 43.141731,99.509460 
	C43.336842,95.709938 43.882427,91.928406 44.656647,88.066620 
z"/>
<path fill="#98ABBA" opacity="1.000000" stroke="none" 
	d="
M257.156128,27.857525 
	C256.796265,27.609222 256.739868,27.201149 256.894440,27.065006 
	C260.596558,26.939638 264.151428,26.832603 267.685944,27.052685 
	C268.467499,27.101349 269.177002,28.307119 269.877808,29.412975 
	C265.729279,29.265852 261.622650,28.685839 257.156128,27.857525 
z"/>
<path fill="#3E5263" opacity="1.000000" stroke="none" 
	d="
M202.109863,46.348228 
	C205.972580,46.960201 205.625748,49.142673 203.497192,51.887840 
	C202.800217,50.271809 202.422272,48.507797 202.109863,46.348228 
z"/>
<path fill="#98ABBA" opacity="1.000000" stroke="none" 
	d="
M132.162384,71.597664 
	C132.153702,72.431961 132.097427,72.888016 132.004852,73.687225 
	C131.731674,72.420235 131.494827,70.810089 131.624039,69.067291 
	C132.031662,69.696236 132.073242,70.457825 132.162384,71.597664 
z"/>
<path fill="#738496" opacity="1.000000" stroke="none" 
	d="
M89.494217,111.846939 
	C90.217102,111.539314 91.301071,111.292336 92.725922,111.039848 
	C91.996300,111.325424 90.925797,111.616508 89.494217,111.846939 
z"/>
<path fill="#496478" opacity="1.000000" stroke="none" 
	d="
M183.978622,76.691238 
	C183.397415,76.482864 182.791031,75.971115 182.165604,75.134071 
	C182.748856,75.335144 183.351151,75.861504 183.978622,76.691238 
z"/>
<path fill="#82A8BA" opacity="1.000000" stroke="none" 
	d="
M177.268753,64.979179 
	C177.421066,64.483047 177.832077,63.862225 178.528137,63.158569 
	C178.384628,63.668655 177.956039,64.261574 177.268753,64.979179 
z"/>
<path fill="#457887" opacity="1.000000" stroke="none" 
	d="
M191.392502,48.016392 
	C191.515610,47.468468 191.918350,46.808636 192.625198,46.073948 
	C192.510254,46.634224 192.091187,47.269356 191.392502,48.016392 
z"/>
<path fill="#496478" opacity="1.000000" stroke="none" 
	d="
M185.912292,79.679199 
	C185.345734,79.446365 184.757034,78.906921 184.133759,78.046890 
	C184.696182,78.275055 185.293167,78.823822 185.912292,79.679199 
z"/>
<path fill="#738496" opacity="1.000000" stroke="none" 
	d="
M199.323578,36.002758 
	C199.466125,35.447323 199.894531,34.794205 200.623230,34.066322 
	C200.485474,34.629395 200.047455,35.267235 199.323578,36.002758 
z"/>
<path fill="#2B5767" opacity="1.000000" stroke="none" 
	d="
M195.684113,31.186054 
	C196.055084,31.254717 196.026749,31.621965 195.999496,31.804012 
	C195.176910,31.856739 194.381592,31.727421 193.328644,31.439301 
	C193.818390,31.226130 194.565750,31.171761 195.684113,31.186054 
z"/>
<path fill="#2B5767" opacity="1.000000" stroke="none" 
	d="
M199.748535,31.074917 
	C199.695114,31.231945 199.385300,31.357658 199.029999,31.311563 
	C199.153748,31.107706 199.322937,31.075655 199.748535,31.074917 
z"/>
<path fill="#57697F" opacity="1.000000" stroke="none" 
	d="
M268.262939,92.944916 
	C268.004089,92.843018 268.003510,92.668098 268.000061,92.229668 
	C268.196472,91.977119 268.395691,91.988075 268.894653,92.022461 
	C268.970032,92.321236 268.745636,92.596573 268.262939,92.944916 
z"/>
<path fill="#457887" opacity="1.000000" stroke="none" 
	d="
M189.959839,49.190689 
	C189.907959,48.947079 190.210861,48.648552 190.790192,48.193680 
	C190.815964,48.403484 190.565308,48.769630 189.959839,49.190689 
z"/>
<path fill="#CADBEA" opacity="1.000000" stroke="none" 
	d="
M203.734344,86.014198 
	C204.052048,86.085632 204.157303,86.276093 204.130310,86.764999 
	C203.839325,86.753372 203.680603,86.443298 203.734344,86.014198 
z"/>
<path fill="#476274" opacity="1.000000" stroke="none" 
	d="
M109.874344,88.740250 
	C108.077820,91.571983 106.161758,94.151382 104.202820,97.058624 
	C104.159958,97.386467 104.164635,97.163414 103.763969,97.111801 
	C102.562363,96.998260 101.761429,96.936325 100.945709,96.523773 
	C100.289375,94.447372 99.647835,92.721588 99.006287,90.995804 
	C99.628899,90.207451 100.251511,89.419098 100.925629,88.323807 
	C101.146942,88.013527 101.316742,88.010170 102.098694,88.000404 
	C103.809372,87.663399 104.907898,87.332794 106.006424,87.002197 
	C106.752831,87.000992 107.499229,86.999786 108.618622,86.997131 
	C109.246017,87.493103 109.500412,87.990509 109.874344,88.740250 
z"/>
<path fill="#46596D" opacity="1.000000" stroke="none" 
	d="
M110.658745,77.122955 
	C110.807663,78.795914 110.637512,80.596367 110.245071,82.707649 
	C110.128418,81.095802 110.234047,79.173126 110.658745,77.122955 
z"/>
<path fill="#293C4D" opacity="1.000000" stroke="none" 
	d="
M70.355469,30.327938 
	C73.359955,30.085241 76.691483,30.098705 80.310043,30.465870 
	C77.292221,30.741083 73.987366,30.662592 70.355469,30.327938 
z"/>
<path fill="#46596D" opacity="1.000000" stroke="none" 
	d="
M108.043152,69.945724 
	C108.982986,71.414787 109.922821,72.883858 110.914970,74.680923 
	C109.991669,73.907501 109.016052,72.806084 108.028152,71.088425 
	C108.024963,70.296707 108.034058,70.121216 108.043152,69.945724 
z"/>
<path fill="#4F6274" opacity="1.000000" stroke="none" 
	d="
M105.748428,86.801315 
	C104.907898,87.332794 103.809372,87.663399 102.353424,87.997147 
	C103.160812,87.533684 104.325630,87.067055 105.748428,86.801315 
z"/>
<path fill="#4F6274" opacity="1.000000" stroke="none" 
	d="
M90.281647,65.601913 
	C90.121559,65.168358 90.175148,64.790161 90.228745,64.411964 
	C90.521072,64.493919 90.813400,64.575874 91.105743,64.657837 
	C90.902275,64.990982 90.698799,65.324127 90.281647,65.601913 
z"/>
<path fill="#4F6274" opacity="1.000000" stroke="none" 
	d="
M108.018822,69.711441 
	C108.034058,70.121216 108.024963,70.296707 108.007172,70.735611 
	C107.286324,70.622490 106.574165,70.245949 105.862015,69.869400 
	C106.355629,69.595924 106.849243,69.322449 107.637344,69.029617 
	C107.931824,69.010277 107.994492,69.477165 108.018822,69.711441 
z"/>
<path fill="#364858" opacity="1.000000" stroke="none" 
	d="
M109.326279,36.866032 
	C109.287048,36.534927 109.368752,36.297939 109.450447,36.060951 
	C109.552567,36.133877 109.752441,36.236248 109.740791,36.274906 
	C109.669579,36.511349 109.550400,36.733341 109.326279,36.866032 
z"/>
<path fill="#3A4C5D" opacity="1.000000" stroke="none" 
	d="
M50.295296,35.940872 
	C50.497791,35.448723 50.997837,34.874134 51.754433,34.166801 
	C51.538269,34.642178 51.065559,35.250305 50.295296,35.940872 
z"/>
<path fill="#5D6D84" opacity="1.000000" stroke="none" 
	d="
M262.984192,93.948143 
	C260.567841,94.542160 258.151489,95.136177 255.143799,95.646355 
	C252.113739,93.164223 251.587494,90.624222 253.982300,87.867798 
	C255.477936,85.732834 256.973572,83.597878 258.707001,81.209724 
	C261.788910,82.153191 264.633026,83.349854 267.742615,84.775543 
	C267.982208,85.750038 267.956360,86.495506 267.575562,87.696457 
	C265.808472,90.084007 264.396332,92.016075 262.984192,93.948143 
z"/>
<path fill="#546779" opacity="1.000000" stroke="none" 
	d="
M217.068924,41.011841 
	C216.713470,42.427605 216.358002,43.843372 215.956451,45.621853 
	C213.406876,45.055984 210.903412,44.127396 207.988373,43.046146 
	C208.044205,42.052219 208.171661,39.783806 208.139008,37.239319 
	C210.057739,35.624695 212.136597,34.286148 214.579620,33.312290 
	C214.446777,35.229267 213.949753,36.781555 213.327576,38.724754 
	C214.596130,39.500221 215.832520,40.256031 217.068924,41.011841 
z"/>
<path fill="#4D5F75" opacity="1.000000" stroke="none" 
	d="
M149.973221,54.593430 
	C150.003433,55.014664 150.029343,55.474812 150.062180,55.702782 
	C149.765121,56.418697 149.435211,56.906651 148.641190,57.694740 
	C144.219299,58.017914 140.826401,59.077511 138.683075,63.088226 
	C137.246613,63.784451 136.120331,64.391861 134.994034,64.999268 
	C135.329544,55.233833 135.736786,45.470058 135.961472,35.702080 
	C136.039581,32.305855 137.514206,30.750017 140.837830,31.060001 
	C143.933182,31.348698 147.014465,31.788441 149.943008,32.142471 
	C149.943008,39.838203 149.943008,47.005199 149.973221,54.593430 
z"/>
<path fill="#496478" opacity="1.000000" stroke="none" 
	d="
M134.991180,65.435638 
	C136.120331,64.391861 137.246613,63.784451 138.700073,63.415092 
	C139.350632,64.435478 139.674026,65.217796 139.997437,66.000122 
	C138.482834,68.060837 136.968246,70.121552 135.212738,72.074867 
	C134.977341,69.935646 134.982834,67.903824 134.991180,65.435638 
z"/>
<path fill="#308088" opacity="1.000000" stroke="none" 
	d="
M154.018341,76.988907 
	C152.071808,78.762169 150.125275,80.535431 147.728195,82.681824 
	C143.392700,85.001289 139.540588,87.017372 135.610825,88.868599 
	C133.132233,90.036217 130.537506,90.957329 128.100937,91.667892 
	C129.538651,90.456505 131.023666,89.716881 132.122803,88.598145 
	C132.534027,88.179596 132.046310,86.877869 131.968445,85.978821 
	C132.801605,83.851051 133.634750,81.723289 135.030487,79.223671 
	C136.052856,77.850128 136.512680,76.848434 136.972504,75.846741 
	C137.413788,75.563652 137.855072,75.280556 138.813553,75.128799 
	C143.883942,71.507996 148.437103,67.755852 152.990280,64.003708 
	C155.793274,61.773823 158.907181,59.837055 161.339172,57.257393 
	C167.839417,50.362450 173.959656,43.110016 180.429047,36.184750 
	C182.152802,34.339500 183.518143,31.073654 187.264572,32.814011 
	C191.039062,34.567410 189.025879,37.581966 188.886948,40.757645 
	C188.467255,41.570339 188.208939,41.791733 187.578873,42.038628 
	C180.855698,42.506824 182.323257,48.605671 180.030792,51.984558 
	C178.679031,53.623631 177.339096,55.272621 175.973160,56.899776 
	C172.754059,60.734478 169.522583,64.558784 165.814240,68.797791 
	C161.561035,71.801819 157.789688,74.395363 154.018341,76.988907 
z"/>
<path fill="#408995" opacity="1.000000" stroke="none" 
	d="
M153.112091,63.751793 
	C148.437103,67.755852 143.883942,71.507996 139.075027,75.077248 
	C141.769119,71.868958 144.762787,68.884537 147.647888,65.798615 
	C148.854660,64.507851 149.830917,63.001595 150.987152,61.246014 
	C151.839645,61.235950 152.616989,61.573181 153.708466,61.964989 
	C153.759705,62.513004 153.496796,63.006443 153.112091,63.751793 
z"/>
<path fill="#457887" opacity="1.000000" stroke="none" 
	d="
M187.950638,42.013130 
	C188.208939,41.791733 188.467255,41.570339 188.879028,41.142273 
	C189.470795,40.941998 189.909073,40.948387 190.676620,40.950504 
	C189.863297,42.848904 188.720718,44.751575 187.291916,46.829041 
	C187.005707,47.003834 186.991669,46.992298 186.984436,46.619217 
	C187.301682,44.835136 187.626160,43.424133 187.950638,42.013130 
z"/>
<path fill="#586B7C" opacity="1.000000" stroke="none" 
	d="
M266.898804,36.711159 
	C254.299744,36.954300 241.635040,36.929485 228.374969,36.587135 
	C226.190323,34.517830 224.601059,32.766064 223.011795,31.014294 
	C224.940735,30.668600 226.867340,30.039957 228.798981,30.024158 
	C239.547729,29.936247 250.297745,29.982952 261.047180,30.023623 
	C262.478027,30.029034 263.908020,30.261776 264.013733,30.271196 
	C265.257568,32.994083 266.045380,34.718643 266.898804,36.711159 
z"/>
<path fill="#4D6071" opacity="1.000000" stroke="none" 
	d="
M222.598679,31.012856 
	C224.601059,32.766064 226.190323,34.517830 227.908905,36.574257 
	C226.632080,36.957275 225.225952,37.035629 223.326645,36.862545 
	C222.210785,37.399990 221.588104,38.188881 220.965408,38.977772 
	C220.949097,39.144131 220.932770,39.310490 220.893616,39.726448 
	C219.803970,40.227066 218.737152,40.478085 217.369629,40.870472 
	C215.832520,40.256031 214.596130,39.500221 213.327576,38.724754 
	C213.949753,36.781555 214.446777,35.229267 214.950256,33.319305 
	C214.956711,32.961636 214.980118,32.979488 215.180054,32.838013 
	C215.628860,32.481091 215.835876,32.231010 216.001053,31.946297 
	C218.062561,31.634670 220.124054,31.323044 222.598679,31.012856 
M218.149429,35.514603 
	C218.149429,35.514603 217.884918,35.427063 217.884918,35.427063 
	C217.884918,35.427063 218.052582,35.624687 218.149429,35.514603 
z"/>
<path fill="#546779" opacity="1.000000" stroke="none" 
	d="
M215.801865,32.088951 
	C215.835876,32.231010 215.628860,32.481091 215.182343,32.839474 
	C215.134796,32.686153 215.340805,32.435886 215.801865,32.088951 
z"/>
<path fill="#627388" opacity="1.000000" stroke="none" 
	d="
M253.578659,87.916306 
	C251.587494,90.624222 252.113739,93.164223 254.799957,95.795609 
	C255.021118,96.388092 254.994797,96.747482 254.503357,97.446014 
	C245.999100,97.589767 237.959930,97.394402 229.961487,96.788055 
	C230.340851,93.938110 230.679474,91.499130 231.018097,89.060150 
	C234.302109,88.568413 237.586105,88.076675 240.981628,87.198288 
	C243.136307,86.850128 245.179489,86.888603 247.519287,86.992569 
	C249.602264,87.360306 251.388641,87.662560 253.578659,87.916306 
z"/>
<path fill="#5C6D80" opacity="1.000000" stroke="none" 
	d="
M230.559311,89.034134 
	C230.679474,91.499130 230.340851,93.938110 229.544388,96.752777 
	C227.406998,97.116241 225.727432,97.104019 224.047882,97.091789 
	C221.290756,96.860229 218.533630,96.628677 215.385086,95.835831 
	C214.158218,89.739105 209.781601,92.842979 207.020187,92.006294 
	C208.083481,86.708115 212.332733,89.809471 215.774841,89.165939 
	C217.654877,89.248047 218.839508,89.113625 220.024124,88.979218 
	C223.382935,88.988853 226.741730,88.998482 230.559311,89.034134 
z"/>
<path fill="#334558" opacity="1.000000" stroke="none" 
	d="
M224.041092,97.393379 
	C225.727432,97.104019 227.406998,97.116241 229.503662,97.163750 
	C237.959930,97.394402 245.999100,97.589767 254.501724,97.716560 
	C254.954971,98.080872 254.944778,98.513763 254.943359,99.268570 
	C244.950165,99.627960 234.948196,99.665451 224.488220,99.607544 
	C224.031586,98.906418 224.032944,98.300697 224.041092,97.393379 
z"/>
<path fill="#627388" opacity="1.000000" stroke="none" 
	d="
M206.948090,92.354858 
	C209.781601,92.842979 214.158218,89.739105 215.015686,95.683594 
	C213.249908,96.369972 211.467133,96.833878 209.673157,96.882378 
	C206.738174,96.961708 205.817169,95.430740 206.948090,92.354858 
z"/>
<path fill="#627388" opacity="1.000000" stroke="none" 
	d="
M219.618256,88.968552 
	C218.839508,89.113625 217.654877,89.248047 216.216522,89.175888 
	C217.046005,88.965508 218.129196,88.961700 219.618256,88.968552 
z"/>
<path fill="#526378" opacity="1.000000" stroke="none" 
	d="
M98.607574,90.992355 
	C99.647835,92.721588 100.289375,94.447372 100.893967,96.751450 
	C100.857018,97.329742 100.723846,97.774673 100.373276,97.798721 
	C99.319160,97.870644 98.615631,97.918518 97.585052,97.907181 
	C95.497261,98.518501 93.736511,99.189034 91.975761,99.859566 
	C79.051857,99.579521 66.127663,99.311760 53.204269,99.009872 
	C50.357681,98.943382 46.951874,99.987236 46.909473,95.027626 
	C46.867233,90.086952 50.275856,91.086761 53.126240,90.909622 
	C53.458778,90.888954 53.791840,90.876755 54.871254,90.826218 
	C56.384972,90.005119 57.152088,89.218430 57.919209,88.431747 
	C58.412502,88.369751 58.905796,88.307755 59.752533,88.380669 
	C61.251617,89.341652 62.407154,90.894821 63.541336,90.879372 
	C73.075050,90.749557 82.604851,90.332344 92.561142,89.984146 
	C94.727264,90.307419 96.468056,90.648163 98.607574,90.992355 
z"/>
<path fill="#476274" opacity="1.000000" stroke="none" 
	d="
M92.330170,99.887451 
	C93.736511,99.189034 95.497261,98.518501 97.588150,98.257782 
	C97.933372,99.133888 97.948441,99.600197 97.718849,100.197975 
	C97.191284,100.567673 96.908386,100.805893 96.625488,101.044106 
	C95.311852,100.667847 93.998215,100.291588 92.330170,99.887451 
z"/>
<path fill="#334558" opacity="1.000000" stroke="none" 
	d="
M57.556419,88.355400 
	C57.152088,89.218430 56.384972,90.005119 55.314960,90.794289 
	C55.009186,90.215378 55.006302,89.633972 55.000412,88.759171 
	C55.729481,88.403534 56.461559,88.341293 57.556419,88.355400 
z"/>
<path fill="#84BCCA" opacity="1.000000" stroke="none" 
	d="
M96.582458,101.208771 
	C96.908386,100.805893 97.191284,100.567673 97.800201,100.351158 
	C98.126228,100.372864 98.068581,100.714935 98.068588,100.714935 
	C97.775383,101.019241 97.482170,101.323540 96.866547,101.670807 
	C96.544144,101.713783 96.539429,101.373428 96.582458,101.208771 
z"/>
<path fill="#3B717F" opacity="1.000000" stroke="none" 
	d="
M154.324142,77.094681 
	C157.789688,74.395363 161.561035,71.801819 165.664612,69.107140 
	C166.321274,69.596062 166.645691,70.186127 167.151917,71.067932 
	C164.107437,74.520950 160.881134,77.682228 157.335724,80.943207 
	C156.221069,79.762093 155.425507,78.481277 154.324142,77.094681 
z"/>
<path fill="#277178" opacity="1.000000" stroke="none" 
	d="
M187.578873,42.038628 
	C187.626160,43.424133 187.301682,44.835136 186.978027,46.613388 
	C184.880692,48.598511 182.782547,50.216381 180.357590,51.909401 
	C182.323257,48.605671 180.855698,42.506824 187.578873,42.038628 
z"/>
<path fill="#4F687E" opacity="1.000000" stroke="none" 
	d="
M178.506195,75.028656 
	C179.540588,76.466309 180.199829,77.900711 180.925018,79.668655 
	C180.018616,82.227142 179.347580,84.657295 178.004288,86.629585 
	C175.916870,89.694450 173.468369,91.226768 171.130783,86.573647 
	C170.668991,85.654411 169.404114,85.138611 168.257980,84.217651 
	C168.609421,79.080513 171.990631,76.083855 178.506195,75.028656 
z"/>
<path fill="#347981" opacity="1.000000" stroke="none" 
	d="
M127.994881,91.989014 
	C130.537506,90.957329 133.132233,90.036217 135.610825,88.868599 
	C139.540588,87.017372 143.392700,85.001289 147.651306,83.017410 
	C147.733856,84.234283 147.442749,85.488701 147.184830,87.064125 
	C141.904495,90.717018 136.590988,94.048897 131.127731,97.687225 
	C129.882736,97.666374 128.787506,97.339066 127.085526,96.791756 
	C125.321114,95.716766 124.163460,94.861778 123.311325,93.865295 
	C125.076202,93.145538 126.535538,92.567276 127.994881,91.989014 
z"/>
<path fill="#3E7D87" opacity="1.000000" stroke="none" 
	d="
M123.005798,94.006783 
	C124.163460,94.861778 125.321114,95.716766 126.739540,96.775238 
	C118.847282,100.604355 110.694252,104.229988 102.193291,107.970123 
	C102.118713,107.109077 102.075752,105.708061 102.718918,105.229858 
	C105.903023,102.862389 109.268379,100.738724 112.807663,98.297974 
	C115.862167,96.189384 118.678856,94.311928 121.863472,92.456818 
	C122.489532,92.988380 122.747665,93.497581 123.005798,94.006783 
z"/>
<path fill="#3E5263" opacity="1.000000" stroke="none" 
	d="
M221.211456,38.847900 
	C221.588104,38.188881 222.210785,37.399990 222.905457,36.886856 
	C222.470779,37.681084 221.964142,38.199554 221.211456,38.847900 
z"/>
<path fill="#35858A" opacity="1.000000" stroke="none" 
	d="
M123.311325,93.865295 
	C122.747665,93.497581 122.489532,92.988380 122.106506,92.221527 
	C125.085037,90.018631 128.188477,88.073380 131.630173,86.053474 
	C132.046310,86.877869 132.534027,88.179596 132.122803,88.598145 
	C131.023666,89.716881 129.538651,90.456505 128.100937,91.667892 
	C126.535538,92.567276 125.076202,93.145538 123.311325,93.865295 
z"/>
<path fill="#408995" opacity="1.000000" stroke="none" 
	d="
M136.658203,75.888168 
	C136.512680,76.848434 136.052856,77.850128 135.266739,78.983307 
	C134.966202,78.346672 134.991989,77.578545 135.050781,76.430344 
	C135.503845,76.010048 135.923874,75.969826 136.658203,75.888168 
z"/>
<path fill="#3D6074" opacity="1.000000" stroke="none" 
	d="
M140.364655,65.930183 
	C139.674026,65.217796 139.350632,64.435478 139.010239,63.326279 
	C140.826401,59.077511 144.219299,58.017914 148.577301,57.987190 
	C148.318420,62.792610 145.082947,64.910057 140.364655,65.930183 
z"/>
<path fill="#3A4C5D" opacity="1.000000" stroke="none" 
	d="
M150.951950,94.009781 
	C151.809677,98.911201 149.613113,100.699211 144.887985,100.070030 
	C141.382172,99.603210 137.858307,99.271881 134.216690,98.514908 
	C136.154999,97.492157 138.219101,96.834694 140.901535,96.266312 
	C144.663895,95.573524 147.807922,94.791656 150.951950,94.009781 
z"/>
<path fill="#3E5263" opacity="1.000000" stroke="none" 
	d="
M150.995972,93.607285 
	C147.807922,94.791656 144.663895,95.573524 141.231445,96.122749 
	C141.380722,95.526047 141.818451,95.161995 142.699219,94.858322 
	C143.395065,94.721581 143.647888,94.524460 143.900696,94.327332 
	C146.298523,92.945023 148.696365,91.562721 151.299438,90.506653 
	C151.349777,91.623520 151.194901,92.414154 150.995972,93.607285 
z"/>
<path fill="#3A4C5D" opacity="1.000000" stroke="none" 
	d="
M143.618530,94.372498 
	C143.647888,94.524460 143.395065,94.721581 142.988724,94.805573 
	C143.002243,94.600838 143.169296,94.509247 143.618530,94.372498 
z"/>
<path fill="#84BCCA" opacity="1.000000" stroke="none" 
	d="
M102.344238,102.029976 
	C101.946785,101.683136 101.908035,101.383072 101.852501,100.499107 
	C101.994370,99.800354 102.124306,99.659081 102.541733,99.372688 
	C103.293510,98.557129 103.729073,97.860268 104.164635,97.163414 
	C104.164635,97.163414 104.159958,97.386467 104.262230,97.433723 
	C105.972717,96.670372 107.580940,95.859772 109.533089,95.048523 
	C107.485664,97.390831 105.094307,99.733788 102.344238,102.029976 
z"/>
<path fill="#57697F" opacity="1.000000" stroke="none" 
	d="
M263.271545,93.792419 
	C264.396332,92.016075 265.808472,90.084007 267.554382,88.068939 
	C267.928436,88.762169 267.968781,89.538391 268.019897,90.705841 
	C266.540100,91.943604 265.049500,92.790154 263.271545,93.792419 
z"/>
<path fill="#354859" opacity="1.000000" stroke="none" 
	d="
M102.225510,99.491394 
	C102.124306,99.659081 101.994370,99.800354 101.783325,100.050568 
	C100.752884,100.313515 99.774826,100.441086 98.432678,100.641800 
	C98.068581,100.714935 98.126228,100.372864 98.044876,100.219681 
	C97.948441,99.600197 97.933372,99.133888 97.915192,98.316986 
	C98.615631,97.918518 99.319160,97.870644 100.661140,98.054276 
	C101.608223,98.687660 101.916870,99.089523 102.225510,99.491394 
z"/>
<path fill="#2B5767" opacity="1.000000" stroke="none" 
	d="
M102.541733,99.372688 
	C101.916870,99.089523 101.608223,98.687660 101.011719,98.030228 
	C100.723846,97.774673 100.857018,97.329742 100.908752,97.102066 
	C101.761429,96.936325 102.562363,96.998260 103.763969,97.111801 
	C103.729073,97.860268 103.293510,98.557129 102.541733,99.372688 
z"/>
<path fill="#546779" opacity="1.000000" stroke="none" 
	d="
M218.101013,35.569645 
	C218.052582,35.624687 217.884918,35.427063 217.884918,35.427063 
	C217.884918,35.427063 218.149429,35.514603 218.101013,35.569645 
z"/>
</svg>